<mxfile host="app.diagrams.net" agent="Mozilla/5.0 (Windows NT 10.0; Win64; x64) AppleWebKit/537.36 (KHTML, like Gecko) Chrome/130.0.0.0 Safari/537.36" version="24.8.4">
  <diagram name="Page-1" id="2YBvvXClWsGukQMizWep">
    <mxGraphModel dx="1189" dy="906" grid="1" gridSize="10" guides="1" tooltips="1" connect="1" arrows="1" fold="1" page="1" pageScale="1" pageWidth="850" pageHeight="1100" math="0" shadow="0">
      <root>
        <mxCell id="0" />
        <mxCell id="1" parent="0" />
        <mxCell id="QT0idfkxXLzTyoDSYEQH-2" value="" style="shape=umlLifeline;perimeter=lifelinePerimeter;whiteSpace=wrap;html=1;container=1;dropTarget=0;collapsible=0;recursiveResize=0;outlineConnect=0;portConstraint=eastwest;newEdgeStyle={&quot;curved&quot;:0,&quot;rounded&quot;:0};participant=umlActor;" parent="1" vertex="1">
          <mxGeometry x="80" y="50" width="20" height="200" as="geometry" />
        </mxCell>
        <mxCell id="QT0idfkxXLzTyoDSYEQH-3" value="&lt;u&gt;:Instructor&lt;/u&gt;" style="text;html=1;align=center;verticalAlign=middle;resizable=0;points=[];autosize=1;strokeColor=none;fillColor=none;" parent="1" vertex="1">
          <mxGeometry x="50" y="20" width="80" height="30" as="geometry" />
        </mxCell>
        <mxCell id="QT0idfkxXLzTyoDSYEQH-4" value="&lt;u&gt;:System&lt;/u&gt;" style="shape=umlLifeline;perimeter=lifelinePerimeter;whiteSpace=wrap;html=1;container=1;dropTarget=0;collapsible=0;recursiveResize=0;outlineConnect=0;portConstraint=eastwest;newEdgeStyle={&quot;curved&quot;:0,&quot;rounded&quot;:0};" parent="1" vertex="1">
          <mxGeometry x="325" y="50" width="100" height="200" as="geometry" />
        </mxCell>
        <mxCell id="QT0idfkxXLzTyoDSYEQH-15" value="takeOffering(offeringId)" style="html=1;verticalAlign=bottom;endArrow=block;edgeStyle=elbowEdgeStyle;elbow=vertical;curved=0;rounded=0;" parent="1" edge="1">
          <mxGeometry relative="1" as="geometry">
            <mxPoint x="89.99857142857144" y="150" as="sourcePoint" />
            <Array as="points">
              <mxPoint x="180.07" y="150" />
            </Array>
            <mxPoint x="374.57" y="150" as="targetPoint" />
            <mxPoint as="offset" />
          </mxGeometry>
        </mxCell>
        <mxCell id="QT0idfkxXLzTyoDSYEQH-17" value="confirmation" style="html=1;verticalAlign=bottom;endArrow=block;edgeStyle=elbowEdgeStyle;elbow=vertical;curved=0;rounded=0;dashed=1;" parent="1" edge="1">
          <mxGeometry relative="1" as="geometry">
            <mxPoint x="374.57" y="180" as="sourcePoint" />
            <Array as="points">
              <mxPoint x="180.07" y="180" />
            </Array>
            <mxPoint x="89.99857142857144" y="180" as="targetPoint" />
            <mxPoint as="offset" />
          </mxGeometry>
        </mxCell>
        <mxCell id="joDt2nWbmkYWZDt66dfc-1" value="&lt;u&gt;Instructor Take Offering Scenario&lt;/u&gt;&lt;div&gt;1. Instructor logs in to the system.&lt;/div&gt;&lt;div&gt;2. Instructor clicks on &quot;View all offerings, select an offering to teach&quot;.&lt;/div&gt;&lt;div&gt;&lt;span style=&quot;white-space: pre;&quot;&gt;&#x9;&lt;/span&gt;-A new OfferingsPage() is created.&lt;br&gt;&lt;/div&gt;&lt;div&gt;3. Instructor clicks on an Offering from the displayed offerings.&amp;nbsp;&lt;/div&gt;&lt;div&gt;4. Instructor clicks on &quot;Take on an offering&quot;. (SSD starts here)&lt;/div&gt;&lt;div&gt;5. The system validates the following.&lt;/div&gt;&lt;div&gt;&lt;span style=&quot;white-space: pre;&quot;&gt;&#x9;&lt;/span&gt;- Offering city matches with instructor&#39;s cities&lt;br&gt;&lt;/div&gt;&lt;div&gt;&lt;span style=&quot;white-space: pre;&quot;&gt;&#x9;&lt;/span&gt;- Offering is not already taken by an Instructor&lt;br&gt;&lt;/div&gt;&lt;div&gt;&lt;span style=&quot;white-space: pre;&quot;&gt;&#x9;&lt;/span&gt;- Offering&#39;s class type matches instructor&#39;s specialty&lt;br&gt;&lt;/div&gt;&lt;div&gt;6. If all conditions pass, the Offering is associated to the Instructor.&lt;/div&gt;&lt;div&gt;7. A confirmation is shown to the instructor.&amp;nbsp;&lt;/div&gt;" style="shape=note;size=20;whiteSpace=wrap;html=1;align=left;" parent="1" vertex="1">
          <mxGeometry x="-360" y="60" width="370" height="180" as="geometry" />
        </mxCell>
        <mxCell id="RzHksFEgJlPBUiN1riSl-1" value="Note that &quot;validations&quot; is not a system operation, but rather just the necessary validations. These are a combination of if statements and method calls that check any necessary conditions BEFORE takeOffering is called." style="shape=note;size=20;whiteSpace=wrap;html=1;align=left;" parent="1" vertex="1">
          <mxGeometry x="460" y="90" width="330" height="140" as="geometry" />
        </mxCell>
        <mxCell id="RzHksFEgJlPBUiN1riSl-2" value="*validations*" style="html=1;verticalAlign=bottom;endArrow=block;edgeStyle=elbowEdgeStyle;elbow=vertical;curved=0;rounded=0;" parent="1" edge="1">
          <mxGeometry relative="1" as="geometry">
            <mxPoint x="89.99857142857144" y="110" as="sourcePoint" />
            <Array as="points">
              <mxPoint x="180.07" y="110" />
            </Array>
            <mxPoint x="374.57" y="110" as="targetPoint" />
            <mxPoint as="offset" />
          </mxGeometry>
        </mxCell>
      </root>
    </mxGraphModel>
  </diagram>
</mxfile>
